<svg xmlns="http://www.w3.org/2000/svg" width="62.089" height="62.089" viewBox="0 0 62.089 62.089">
  <defs>
    <style>
      .cls-1 {
        fill: #fbaa12;
      }
    </style>
  </defs>
  <path id="ic_call_24px" class="cls-1" d="M15.487,29.871A52.254,52.254,0,0,0,38.218,52.6l7.589-7.589a3.43,3.43,0,0,1,3.518-.828A39.347,39.347,0,0,0,61.64,46.152,3.46,3.46,0,0,1,65.089,49.6V61.64a3.46,3.46,0,0,1-3.449,3.449A58.635,58.635,0,0,1,3,6.449,3.46,3.46,0,0,1,6.449,3H18.522a3.46,3.46,0,0,1,3.449,3.449,39.186,39.186,0,0,0,1.966,12.314,3.462,3.462,0,0,1-.862,3.518Z" transform="translate(-3 -3)"/>
</svg>
