<svg xmlns="http://www.w3.org/2000/svg" width="250" height="250" viewBox="0 0 250 250">
  <g id="clean" transform="translate(-1137 -2106)">
    <g id="Ellipse_4" data-name="Ellipse 4" transform="translate(1137 2106)" fill="#fff" stroke="#707070" stroke-width="1">
      <circle cx="125" cy="125" r="125" stroke="none"/>
      <circle cx="125" cy="125" r="124.5" fill="none"/>
    </g>
    <g id="clean-2" data-name="clean" transform="translate(1161.742 2118.805)">
      <g id="Group_10" data-name="Group 10" transform="translate(0 27.771)">
        <path id="Path_14" data-name="Path 14" d="M87.75,162.15l2.7-2.7a2.784,2.784,0,1,0-3.937-3.937l-2.7,2.7a2.784,2.784,0,0,0,3.937,3.937ZM185.576,37.094l-4.858-4.858a15.284,15.284,0,0,0-21.591,0L106.6,84.759a16.226,16.226,0,0,0-13.533,4.619l-5.7,5.7C78.2,92.623,68.335,93.291,60.64,98.7a6.08,6.08,0,0,0-2.583,5.472,182.427,182.427,0,0,1-16.333,15.147A22,22,0,1,0,5.8,143.947a5.492,5.492,0,0,1,1.279,5.265,20.325,20.325,0,0,0,7.4,22.133,2.784,2.784,0,1,0,3.318-4.471,14.936,14.936,0,0,1-5.385-16.049A11.081,11.081,0,0,0,9.9,140.181a16.438,16.438,0,1,1,27.21-4.615A11.092,11.092,0,0,0,38.378,146.5a14.677,14.677,0,0,1-10.072,23.071A2.784,2.784,0,1,0,29,175.1a20.093,20.093,0,0,0,10.912-4.973c9.138,9.9,20.914,19.609,32.63,25.657a12.65,12.65,0,0,0,17.4-6.178c4.661-10.7,15.5-21.762,23.7-29.847a6.1,6.1,0,0,0,5.475-2.587c5.408-7.7,6.071-17.567,3.617-26.73l5.7-5.7a16.226,16.226,0,0,0,4.619-13.533l39.81-39.81a2.784,2.784,0,0,0-3.937-3.937L131.1,105.285a16.193,16.193,0,0,0-2.669-3.523L116.05,89.378a16.194,16.194,0,0,0-3.523-2.669l50.537-50.537a9.71,9.71,0,0,1,13.717,0l4.858,4.858a9.71,9.71,0,0,1,0,13.717L178.2,58.191a2.784,2.784,0,0,0,3.937,3.937l3.443-3.443a15.284,15.284,0,0,0,0-21.591ZM84.832,187.382a7.068,7.068,0,0,1-9.738,3.453,94.252,94.252,0,0,1-11.24-6.927A47.511,47.511,0,0,1,72.7,171.737a2.784,2.784,0,0,0-3.937-3.937,52.9,52.9,0,0,0-9.423,12.732,131.364,131.364,0,0,1-15.8-14.685A20.145,20.145,0,0,0,46.5,152.275c1.214-1.019,2.392-2.1,3.517-3.221a2.784,2.784,0,0,0-3.937-3.937c-.434.433-.878.856-1.328,1.273a20.261,20.261,0,0,0-1.845-3.133,5.57,5.57,0,0,1-.682-5.484A21.908,21.908,0,0,0,43.614,124.9,171.169,171.169,0,0,0,60.962,109.15l47.7,47.7C101.688,163.739,89.953,175.621,84.832,187.382ZM114.56,153.97a.528.528,0,0,1-.81.094c-53.41-53.5-50.188-49.96-50.15-50.4a.546.546,0,0,1,.24-.409c6.68-4.693,15.422-4.872,23.352-2.444a2.867,2.867,0,0,0,.3.094C111.779,108.558,125.938,137.773,114.56,153.97ZM124.5,105.7a10.693,10.693,0,0,1,0,15.105l-3.779,3.779A52.905,52.905,0,0,0,93.229,97.094l3.779-3.779a10.693,10.693,0,0,1,15.105,0Zm-84.9-7.32A16.446,16.446,0,1,0,23.146,81.932,16.464,16.464,0,0,0,39.592,98.378Zm0-27.324A10.878,10.878,0,1,1,28.714,81.932,10.89,10.89,0,0,1,39.592,71.054Zm18.774,56.3-2.7,2.7A2.784,2.784,0,1,0,59.6,134l2.7-2.7a2.784,2.784,0,1,0-3.937-3.937Zm17.322,25.157a2.784,2.784,0,1,0-.381-5.555,4.172,4.172,0,0,1-4.454-4.454,2.784,2.784,0,1,0-5.555-.382,9.74,9.74,0,0,0,10.39,10.391Z" transform="translate(0 -27.771)" fill="#fbaa12"/>
      </g>
    </g>
  </g>
</svg>
