<svg xmlns="http://www.w3.org/2000/svg" width="50" height="50" viewBox="0 0 50 50">
  <defs>
    <style>
      .cls-1 {
        fill: #fff;
      }
    </style>
  </defs>
  <g id="instagram" transform="translate(0.001)">
    <path id="Path_16" data-name="Path 16" class="cls-1" d="M36.465,0H13.534A13.55,13.55,0,0,0,0,13.535V36.466A13.55,13.55,0,0,0,13.534,50H36.465A13.55,13.55,0,0,0,50,36.466V13.535A13.55,13.55,0,0,0,36.464,0Zm10.6,36.466a10.615,10.615,0,0,1-10.6,10.6H13.534a10.615,10.615,0,0,1-10.6-10.6V13.535a10.615,10.615,0,0,1,10.6-10.6H36.465a10.615,10.615,0,0,1,10.6,10.6Zm0,0"/>
    <path id="Path_17" data-name="Path 17" class="cls-1" d="M129.675,116a13.671,13.671,0,1,0,13.671,13.671A13.687,13.687,0,0,0,129.675,116Zm0,24.412a10.74,10.74,0,1,1,10.74-10.74A10.753,10.753,0,0,1,129.675,140.416Zm0,0" transform="translate(-104.676 -104.675)"/>
    <path id="Path_18" data-name="Path 18" class="cls-1" d="M362.017,66.285a4.04,4.04,0,1,0,4.04,4.04A4.044,4.044,0,0,0,362.017,66.285Zm0,5.148a1.109,1.109,0,1,1,1.109-1.109A1.11,1.11,0,0,1,362.017,71.434Zm0,0" transform="translate(-323.019 -59.812)"/>
  </g>
</svg>
