<svg xmlns="http://www.w3.org/2000/svg" width="250" height="250" viewBox="0 0 250 250">
  <g id="speed" transform="translate(-137 -1736)">
    <g id="Ellipse_1" data-name="Ellipse 1" transform="translate(137 1736)" fill="#fff" stroke="#707070" stroke-width="1">
      <circle cx="125" cy="125" r="125" stroke="none"/>
      <circle cx="125" cy="125" r="124.5" fill="none"/>
    </g>
    <g id="Group_1" data-name="Group 1" transform="translate(162 1713.501)">
      <path id="Path_1" data-name="Path 1" d="M286.525,125.715a7.57,7.57,0,0,0-9.616-.9c-11.326,7.72-68.135,46.539-74.24,52.644a22.708,22.708,0,0,0,32.114,32.114c6.105-6.105,44.924-62.914,52.644-74.24A7.571,7.571,0,0,0,286.525,125.715Zm-62.447,73.151a7.569,7.569,0,0,1-10.706-10.7c2.372-2.344,18.5-13.847,38.346-27.641C237.924,180.367,226.421,196.5,224.078,198.867Z" transform="translate(-121.839 -44.129)" fill="#fbaa12"/>
      <path id="Path_2" data-name="Path 2" d="M34.906,184.592l-9.344,4.558a81.367,81.367,0,0,1-5.1-68.786L31.167,125.5a7.569,7.569,0,1,0,6.547-13.65l-10.571-5.071A81.854,81.854,0,0,1,89.318,67.985V79.37a7.569,7.569,0,0,0,15.139,0V67.979a80.811,80.811,0,0,1,26.027,6.857,7.569,7.569,0,1,0,6.228-13.8,96.807,96.807,0,0,0-120.3,142.133,7.568,7.568,0,0,0,9.611,2.6L41.544,198.2a7.569,7.569,0,1,0-6.638-13.606Z" transform="translate(0)" fill="#fbaa12"/>
      <path id="Path_3" data-name="Path 3" d="M427.63,195.951a7.569,7.569,0,1,0-13.8,6.228,81.483,81.483,0,0,1-3.256,73.418l-9.756-4.646a7.569,7.569,0,1,0-6.508,13.668l15.9,7.569a7.567,7.567,0,0,0,9.547-2.627,96.657,96.657,0,0,0,7.876-93.611Z" transform="translate(-242.396 -86.39)" fill="#fbaa12"/>
    </g>
  </g>
</svg>
