<svg xmlns="http://www.w3.org/2000/svg" width="250" height="250" viewBox="0 0 250 250">
  <g id="taxi" transform="translate(-1137 -1740)">
    <g id="Ellipse_3" data-name="Ellipse 3" transform="translate(1137 1740)" fill="#fff" stroke="#707070" stroke-width="1">
      <circle cx="125" cy="125" r="125" stroke="none"/>
      <circle cx="125" cy="125" r="124.5" fill="none"/>
    </g>
    <g id="car" transform="translate(1185 1776.558)">
      <g id="Group_9" data-name="Group 9" transform="translate(0 11.942)">
        <path id="Path_12" data-name="Path 12" d="M137.157,56.989a7.41,7.41,0,0,0-1.972.275l-6.958,1.916-7.355-17.915c-2.2-5.369-8.719-9.738-14.524-9.738h-4.894V16.676a4.739,4.739,0,0,0-4.734-4.734H46.547a4.739,4.739,0,0,0-4.734,4.734V31.528H36.818c-5.8,0-12.32,4.368-14.524,9.737L14.95,59.155,8.083,57.264a7.438,7.438,0,0,0-1.972-.275A6.073,6.073,0,0,0,0,63.421v3.808a7.9,7.9,0,0,0,7.89,7.89H8.4l-1.05,2.558A59.2,59.2,0,0,0,3.632,96.5v35.74a7.9,7.9,0,0,0,7.89,7.89h9.485a7.9,7.9,0,0,0,7.89-7.89v-8.784H114.27v8.784a7.9,7.9,0,0,0,7.89,7.89h9.483a7.9,7.9,0,0,0,7.89-7.89V96.5a59.2,59.2,0,0,0-3.714-18.826l-1.05-2.558h.608a7.9,7.9,0,0,0,7.89-7.89V63.421A6.071,6.071,0,0,0,137.157,56.989ZM90.651,18.255a.19.19,0,0,1,.189-.189h3.647a.19.19,0,0,1,.189.189V31.383a.18.18,0,0,1-.083.145H90.734a.18.18,0,0,1-.083-.145Zm-26.158-.189h4.383a.3.3,0,0,1,.259.176l5.2,13.076,4.768-5.9a.275.275,0,0,0,.015-.3l-4.576-6.891c-.058-.087-.02-.158.085-.158h4.053a.377.377,0,0,1,.288.161l2.359,3.826a.107.107,0,0,0,.2,0l2.361-3.826a.376.376,0,0,1,.288-.161h4.055c.1,0,.142.071.085.158l-4.58,6.891a.275.275,0,0,0,.014.3L88.6,31.425a.1.1,0,0,1,.028.1h-4.3a.355.355,0,0,1-.138-.117l-2.664-4.264a.109.109,0,0,0-.2,0l-2.659,4.264a.355.355,0,0,1-.138.117H70.421a.259.259,0,0,1-.122-.136l-.894-2.737a.279.279,0,0,0-.248-.18H64.189a.286.286,0,0,0-.252.179l-.963,2.739a.267.267,0,0,1-.124.134h-3.9a.115.115,0,0,1-.022-.131l5.3-13.155A.3.3,0,0,1,64.493,18.066ZM51.667,31.383V20.955a.19.19,0,0,0-.189-.189H47.093a.19.19,0,0,1-.189-.189V18.255a.19.19,0,0,1,.189-.189h13.2a.19.19,0,0,1,.189.189v2.322a.19.19,0,0,1-.189.189H55.883a.19.19,0,0,0-.189.189V31.383a.18.18,0,0,1-.083.145H51.75A.179.179,0,0,1,51.667,31.383ZM20.525,70.721,31.7,43.5a10.2,10.2,0,0,1,8.71-5.839h62.347a10.2,10.2,0,0,1,8.71,5.839l11.176,27.224c1.319,3.212-.443,5.839-3.915,5.839H24.44C20.968,76.561,19.206,73.933,20.525,70.721ZM45.771,105.78a3.165,3.165,0,0,1-3.156,3.156H21.283a3.165,3.165,0,0,1-3.156-3.156V95.661A3.165,3.165,0,0,1,21.283,92.5H42.615a3.165,3.165,0,0,1,3.156,3.156v10.12Zm79.064,0a3.165,3.165,0,0,1-3.156,3.156H100.347a3.165,3.165,0,0,1-3.156-3.156V95.661a3.165,3.165,0,0,1,3.156-3.156h21.331a3.165,3.165,0,0,1,3.156,3.156Z" transform="translate(0 -11.942)" fill="#fbaa12"/>
        <path id="Path_13" data-name="Path 13" d="M108.157,33.858a.183.183,0,0,0,.181-.275l-2.492-5.751c-.066-.151-.176-.153-.244,0l-2.639,5.757a.178.178,0,0,0,.175.272h5.019Z" transform="translate(-38.891 -11.942)" fill="#fbaa12"/>
      </g>
    </g>
  </g>
</svg>
